<svg width="82" height="82" viewBox="0 0 82 82" fill="none" xmlns="http://www.w3.org/2000/svg">
    <path d="M20.1992 23.5C20.1992 16.0442 26.2434 10 33.6992 10C41.1551 10 47.1992 16.0442 47.1992 23.5V42.7" stroke="#63BA90" stroke-width="6" stroke-linecap="square" />
    <rect x="10" y="34" width="46.8" height="34.8" rx="3" fill="#52D294" />
    <rect x="17" y="43" width="55" height="18" rx="3" fill="#656B68" />
    <path d="M25.1102 50.065L26.9852 50.695L27.7952 51.13L27.6452 50.215L27.6002 48.25H29.1152L29.0852 50.215L28.9352 51.13L29.7452 50.695L31.6202 50.065L32.0702 51.49L30.1952 52.075L29.2952 52.21L29.9552 52.855L31.1252 54.43L29.9102 55.315L28.7702 53.71L28.3652 52.885L27.9602 53.71L26.8202 55.315L25.6052 54.43L26.7902 52.855L27.4352 52.21L26.5352 52.075L24.6602 51.49L25.1102 50.065Z" fill="#EAEEEC" />
    <path d="M36.2406 50.065L38.1156 50.695L38.9256 51.13L38.7756 50.215L38.7306 48.25H40.2456L40.2156 50.215L40.0656 51.13L40.8756 50.695L42.7506 50.065L43.2006 51.49L41.3256 52.075L40.4256 52.21L41.0856 52.855L42.2556 54.43L41.0406 55.315L39.9006 53.71L39.4956 52.885L39.0906 53.71L37.9506 55.315L36.7356 54.43L37.9206 52.855L38.5656 52.21L37.6656 52.075L35.7906 51.49L36.2406 50.065Z" fill="#EAEEEC" />
    <path d="M47.3711 50.065L49.2461 50.695L50.0561 51.13L49.9061 50.215L49.8611 48.25H51.3761L51.3461 50.215L51.1961 51.13L52.0061 50.695L53.8811 50.065L54.3311 51.49L52.4561 52.075L51.5561 52.21L52.2161 52.855L53.3861 54.43L52.1711 55.315L51.0311 53.71L50.6261 52.885L50.2211 53.71L49.0811 55.315L47.8661 54.43L49.0511 52.855L49.6961 52.21L48.7961 52.075L46.9211 51.49L47.3711 50.065Z" fill="#EAEEEC" />
    <path d="M58.5016 50.065L60.3766 50.695L61.1866 51.13L61.0366 50.215L60.9916 48.25H62.5066L62.4766 50.215L62.3266 51.13L63.1366 50.695L65.0116 50.065L65.4616 51.49L63.5866 52.075L62.6866 52.21L63.3466 52.855L64.5166 54.43L63.3016 55.315L62.1616 53.71L61.7566 52.885L61.3516 53.71L60.2116 55.315L58.9966 54.43L60.1816 52.855L60.8266 52.21L59.9266 52.075L58.0516 51.49L58.5016 50.065Z" fill="#EAEEEC" />
</svg>
