<?xml version="1.0" encoding="UTF-8"?>
<svg xmlns="http://www.w3.org/2000/svg" width="65" height="65" viewBox="0 0 65 65">
  <g id="Group_1784" data-name="Group 1784" transform="translate(-575 -7328)">
    <rect id="Rectangle_Copy_5" data-name="Rectangle Copy 5" width="65" height="65" rx="9" transform="translate(575 7328)" fill="#f5f5f5"/>
    <g id="Group_1019" data-name="Group 1019" transform="translate(595 7345)">
      <path id="Path_771" data-name="Path 771" d="M145.735,156.25h-3v-2.535a8.652,8.652,0,0,0-8.642-8.642h-5.072a8.652,8.652,0,0,0-8.642,8.642v2.535h-3v-2.535a11.642,11.642,0,0,1,11.642-11.642h5.072a11.642,11.642,0,0,1,11.642,11.642Z" transform="translate(-118.88 -125.273)"/>
      <path id="Path_772" data-name="Path 772" d="M131.049,142.975a8.742,8.742,0,0,1-8.744-8.745h3a5.745,5.745,0,1,0,2.04-4.39l-1.936-2.291a8.745,8.745,0,1,1,5.64,15.427Z" transform="translate(-118.372 -126.985)"/>
    </g>
  </g>
</svg>
