<svg width="82" height="82" viewBox="0 0 82 82" fill="none" xmlns="http://www.w3.org/2000/svg">
    <mask id="mask0_4501_101812" style="mask-type:alpha" maskUnits="userSpaceOnUse" x="0" y="0" width="82" height="82">
        <path d="M0 0H82V82H0V0Z" fill="white" />
    </mask>
    <g mask="url(#mask0_4501_101812)">
        <path fill-rule="evenodd" clip-rule="evenodd" d="M43.7335 38.4512C45.6858 36.5225 48.3603 36 51.0583 36C54.3144 36 56.6081 37.6106 58 38.9291C59.3919 37.6106 61.6856 36 64.9417 36C67.2427 36 69.8162 36.5662 71.8278 38.388C73.8781 40.2449 75 43.0908 75 46.9277C75 49.1261 74.2142 51.3192 73.1144 53.3252C72.0049 55.3489 70.4998 57.32 68.8784 59.1141C65.6488 62.6876 61.767 65.767 59.0892 67.3544L58 68L56.9108 67.3544C54.233 65.767 50.3512 62.6876 47.1216 59.1141C45.5002 57.32 43.9951 55.3489 42.8856 53.3252C41.7858 51.3192 41 49.1261 41 46.9277C41 43.2591 41.7864 40.3749 43.7335 38.4512ZM46.731 41.4431C45.9511 42.2137 45.25 43.7382 45.25 46.9277C45.25 48.1584 45.7038 49.6392 46.6183 51.3072C47.5231 52.9575 48.8071 54.6603 50.2846 56.2953C52.8141 59.0941 55.77 61.5404 58 63.0391C60.23 61.5404 63.1859 59.0941 65.7154 56.2953C67.1929 54.6603 68.4769 52.9575 69.3817 51.3072C70.2962 49.6392 70.75 48.1584 70.75 46.9277C70.75 43.9065 69.8885 42.3437 68.9639 41.5063C68.0005 40.6338 66.6073 40.2204 64.9417 40.2204C62.5681 40.2204 61.3175 41.5759 60.1866 42.8015C59.9552 43.0524 59.7288 43.2978 59.4988 43.525L58 45.0057L56.5012 43.525C56.2712 43.2978 56.0448 43.0524 55.8134 42.8015C54.6825 41.5759 53.4318 40.2204 51.0583 40.2204C48.7981 40.2204 47.5059 40.6776 46.731 41.4431Z" fill="#00804F" />
        <path fill-rule="evenodd" clip-rule="evenodd" d="M10.1798 66.5989L29.7438 47.0349L34.1172 51.4082L14.5531 70.9723C13.3454 72.1799 11.3874 72.1799 10.1798 70.9723C8.97209 69.7646 8.97209 67.8066 10.1798 66.5989Z" fill="#656B68" />
        <path d="M66 34C66 45.0457 57.0457 54 46 54C34.9543 54 26 45.0457 26 34C26 22.9543 34.9543 14 46 14C57.0457 14 66 22.9543 66 34Z" fill="white" fill-opacity="0.5" />
        <path fill-rule="evenodd" clip-rule="evenodd" d="M45 52.8155C55.3218 52.8155 63.6893 44.6154 63.6893 34.5C63.6893 24.3846 55.3218 16.1845 45 16.1845C34.6782 16.1845 26.3107 24.3846 26.3107 34.5C26.3107 44.6154 34.6782 52.8155 45 52.8155ZM45 59C58.8071 59 70 48.031 70 34.5C70 20.969 58.8071 10 45 10C31.1929 10 20 20.969 20 34.5C20 48.031 31.1929 59 45 59Z" fill="#656B68" />
    </g>
</svg>
    