<svg xmlns="http://www.w3.org/2000/svg" width="140" height="35" viewBox="0 0 140 35">
    <g fill="none" fill-rule="evenodd">
        <g fill="#161616" fill-rule="nonzero">
            <g>
                <path d="M72.623 14.039c1.877 0 3.425.655 4.642 1.966 1.217 1.31 1.825 2.897 1.823 4.759 0 1.863-.608 3.452-1.823 4.765-1.215 1.314-2.763 1.969-4.642 1.965-1.589 0-2.848-.491-3.777-1.473v6.22L66 33.143V14.297h2.845v1.191c.931-.967 2.19-1.45 3.777-1.449zM35.61 8.351v7.14c.931-.967 2.19-1.45 3.775-1.449 1.88 0 3.428.655 4.644 1.966 1.216 1.31 1.824 2.897 1.823 4.758 0 1.864-.608 3.453-1.823 4.766-1.215 1.314-2.763 1.965-4.644 1.955-1.588 0-2.847-.492-3.775-1.473v1.215h-2.845V9.245l2.845-.894zm51.679 5.68c1.589 0 2.848.484 3.777 1.45v-1.192h2.845v12.932h-2.845v-1.215c-.93.988-2.188 1.481-3.777 1.48-1.88 0-3.423-.654-4.629-1.964-1.206-1.31-1.81-2.898-1.811-4.766 0-1.862.604-3.448 1.811-4.758 1.207-1.311 2.75-1.966 4.629-1.966zm36.959-5.68v18.882h-2.853v-1.215c-.926.98-2.183 1.47-3.77 1.468-1.879 0-3.422-.654-4.63-1.964-1.207-1.31-1.81-2.898-1.81-4.766 0-1.862.603-3.448 1.81-4.758 1.208-1.311 2.751-1.966 4.63-1.966 1.59 0 2.848.483 3.776 1.449V9.245l2.847-.894zm9.13 5.68c1.588 0 2.846.484 3.775 1.45v-1.192H140v12.932h-2.846v-1.215c-.93.988-2.189 1.481-3.776 1.48-1.88 0-3.423-.654-4.63-1.964-1.208-1.31-1.811-2.898-1.811-4.766 0-1.862.603-3.448 1.81-4.758 1.208-1.311 2.752-1.966 4.631-1.966zm-73.973-3.474v3.75h3.957v2.532h-3.957v5.767c0 1.465.672 2.198 2.017 2.198.643.017 1.278-.144 1.836-.465l.854 2.383c-.956.44-2 .658-3.052.636-1.329 0-2.41-.366-3.245-1.099-.836-.733-1.254-1.797-1.256-3.194v-6.233h-3.207V14.3h3.207v-2.85l2.846-.893zm44.228 3.48c1.534 0 2.763.497 3.685 1.49.922.993 1.384 2.316 1.384 3.97v7.733h-2.845v-7.268c0-1.051-.248-1.87-.745-2.457-.496-.587-1.199-.88-2.107-.879-1.517 0-2.578.681-3.182 2.043v8.561l-2.838-.001V14.297h2.846v1.37c.879-1.085 2.146-1.628 3.802-1.63zm-52.272.26v12.932h-2.846V14.297h2.846zm66.601 2.325c-1.055-.028-2.068.412-2.768 1.202-1.448 1.689-1.448 4.181 0 5.87.659.748 1.599 1.184 2.59 1.207h.178c1.482 0 2.628-.604 3.44-1.811v-4.681c-.829-1.192-1.975-1.787-3.44-1.787zm-78.887.003c-1.483 0-2.638.595-3.465 1.787v4.68c.81 1.207 1.965 1.81 3.465 1.809 1.056.029 2.069-.412 2.768-1.203 1.45-1.69 1.45-4.183 0-5.872-.7-.79-1.713-1.23-2.768-1.201zm33.235 0c-1.483 0-2.638.595-3.465 1.787v4.68c.81 1.207 1.965 1.81 3.465 1.809 1.056.029 2.07-.412 2.768-1.203 1.45-1.69 1.45-4.183 0-5.872-.7-.79-1.713-1.23-2.768-1.201zm15.316-.003c-1.055-.03-2.069.411-2.768 1.202-1.45 1.688-1.45 4.182 0 5.87.656.746 1.592 1.181 2.579 1.207h.189c1.483 0 2.63-.604 3.44-1.811v-4.681c-.828-1.192-1.975-1.787-3.44-1.787zm46.088 0c-1.055-.028-2.069.412-2.769 1.202-1.447 1.689-1.447 4.181 0 5.87.699.793 1.713 1.235 2.769 1.207 1.482 0 2.629-.604 3.439-1.811v-4.681c-.828-1.192-1.975-1.787-3.44-1.787zm-83.783-8.43c.51-.01 1.001.192 1.357.557.362.348.563.83.557 1.331.004.51-.196.998-.556 1.358-.324.324-.752.518-1.206.551l-.149.005-.132-.003c-.455-.026-.885-.222-1.204-.552-.364-.357-.566-.849-.555-1.359.006-1.04.848-1.882 1.888-1.888zM14.173 2.944c4.422-1.397 7.184 2.5 7.184 4.898v1.54c0 3.421-1.648 5.125-1.848 5.319l-.02.019s2.789 1.421 2.796 4.455v1.936c0 5.035-3.056 7.391-5.817 8.275L3.391 33.511.445 31.35l14.516-4.576c2.672-.84 4.377-3.577 4.377-5.506v-1.896c0-1.54-1.473-2.923-3.241-2.372L6.63 19.986v4.78l-2.946.929V6.25zM0 4.008l2.946 2.16v20.537l10.64-3.355c1.23-.383 2.066-1.522 2.063-2.81V17.92l.667-.21c1.248-.39 2.28.602 2.28 1.673v1.892c0 1.727-1.552 4.084-3.866 4.804L0 30.722V4.008zm18.417 4.067c0-1.454-1.592-2.86-3.351-2.308l-8.43 2.651v8.477l8.434-2.651c2.018-.635 3.342-2.38 3.347-4.795zm-2.983-1.662c1.244-.29 2.244.742 2.245 1.656v1.382c0 2.012-1.065 3.544-2.833 4.096l-7.478 2.357V12.81l5.69-1.795c.997-.326 1.671-1.255 1.673-2.303V6.628l.553-.173zM10.48.247c1.621-.504 3.384-.228 4.773.747l1.326.968c-.885-.094-1.779 0-2.624.278L3.383 5.574.44 3.41z" transform="translate(-24 -23) translate(24 23.523)"/>
            </g>
        </g>
    </g>
</svg>
