<?xml version="1.0" encoding="UTF-8"?>
<svg xmlns="http://www.w3.org/2000/svg" width="65" height="65" viewBox="0 0 65 65">
  <g id="Group_1815" data-name="Group 1815" transform="translate(-228 -762)">
    <g id="Group_1719" data-name="Group 1719" transform="translate(-9 -379)">
      <rect id="Rectangle_Copy_5" data-name="Rectangle Copy 5" width="65" height="65" rx="9" transform="translate(237 1141)" fill="#f5f5f5"/>
      <g id="icon-1_copy" data-name="icon-1 copy" transform="translate(250.688 1154.311)">
        <path id="Rectangle" d="M37.2,17.983H-1.5V11.9L11.676,2.143l1.785,2.411L1.5,13.41v1.573H34.2V13.41L17.715,1.206,19.5-1.206,37.2,11.9Z"/>
        <path id="Line_2" data-name="Line 2" d="M2,11.75H-1V.5H2Z" transform="translate(4.656 22.845)"/>
        <path id="Line_2_Copy" data-name="Line 2 Copy" d="M2,11.75H-1V.5H2Z" transform="translate(13.094 22.845)"/>
        <path id="Line_2_Copy_2" data-name="Line 2 Copy 2" d="M2,11.75H-1V.5H2Z" transform="translate(21.531 22.845)"/>
        <path id="Line_2_Copy_3" data-name="Line 2 Copy 3" d="M2,11.75H-1V.5H2Z" transform="translate(29.969 22.845)"/>
      </g>
    </g>
  </g>
</svg>
