<?xml version="1.0" encoding="UTF-8"?>
<svg xmlns="http://www.w3.org/2000/svg" width="65" height="65" viewBox="0 0 65 65">
  <g id="Group_1816" data-name="Group 1816" transform="translate(-578 -762)">
    <g id="Group_1720" data-name="Group 1720" transform="translate(14 -728)">
      <rect id="Rectangle_Copy_5" data-name="Rectangle Copy 5" width="65" height="65" rx="9" transform="translate(564 1490)" fill="#f5f5f5"/>
      <g id="icon-1_copy_2" data-name="icon-1 copy 2" transform="translate(581 1504)">
        <path id="Rectangle" d="M15.365,38.376l-.574-.253a30.32,30.32,0,0,1-5.085-3.041A29.852,29.852,0,0,1,5.4,31.28a22.337,22.337,0,0,1-3.763-5.428A35.747,35.747,0,0,1-1.5,10.964l3-.057a32.809,32.809,0,0,0,2.835,13.64c2.912,6.024,9.159,9.567,11.088,10.549a25.593,25.593,0,0,0,3.891-2.315,22.493,22.493,0,0,0,7.144-8.234c3.047-6.3,2.909-14.972,2.747-18.029A55.949,55.949,0,0,1,22,4.664a46.552,46.552,0,0,1-6.613-2.952A50.075,50.075,0,0,1,8.653,4.664,56.586,56.586,0,0,1,.413,6.73L-.07,3.77A54.5,54.5,0,0,0,7.675,1.828,47.575,47.575,0,0,0,14.656-1.3l.75-.425.745.433a44.671,44.671,0,0,0,6.828,3.124A56.8,56.8,0,0,0,30.864,3.77L32,3.956,32.114,5.1a52.083,52.083,0,0,1,.086,7.123A35.81,35.81,0,0,1,29.16,25.853,23.347,23.347,0,0,1,25.3,31.482a27.84,27.84,0,0,1-4.313,3.791,26.138,26.138,0,0,1-5.038,2.872Z"/>
        <path id="Path_2" data-name="Path 2" d="M4.169,9.973l-5.23-5.23L1.061,2.622,4.169,5.73,10.96-1.061l2.121,2.121Z" transform="translate(9.725 13.885)"/>
      </g>
    </g>
  </g>
</svg>
