<?xml version="1.0" encoding="UTF-8"?>
<svg xmlns="http://www.w3.org/2000/svg" width="65" height="65" viewBox="0 0 65 65">
  <g id="Group_1783" data-name="Group 1783" transform="translate(-939 -7328)">
    <rect id="Rectangle_Copy_5" data-name="Rectangle Copy 5" width="65" height="65" rx="9" transform="translate(939 7328)" fill="#f5f5f5"/>
    <g id="Group_1781" data-name="Group 1781" transform="translate(-0.774 1.811)">
      <path id="Union_1" data-name="Union 1" d="M12841.7,4053.269a3.917,3.917,0,0,1-3.911-3.912v-2.685a3.917,3.917,0,0,1,3.911-3.912h6.979a3.92,3.92,0,0,1,3.85,3.218h1.026a3.548,3.548,0,0,0,3.544-3.544v-1.1a4.02,4.02,0,0,1-1.022.132h-2.466a4.026,4.026,0,0,1-4.021-4.021v-6.758a4.026,4.026,0,0,1,4.021-4.021h1.232v3h-1.232a1.025,1.025,0,0,0-1.021,1.023v6.758a1.023,1.023,0,0,0,1.021,1.02h2.466a1.023,1.023,0,0,0,1.022-1.02v-11.69a11.107,11.107,0,0,0-11.108-11.109h-9.111a11.109,11.109,0,0,0-11.109,11.109v11.958a1.024,1.024,0,0,0,1.023,1.023h3.121a1.022,1.022,0,0,0,1.02-1.023v-6.875a1.022,1.022,0,0,0-1.02-1.02h-1.22v-3h1.22a4.027,4.027,0,0,1,4.021,4.021v6.875a4.027,4.027,0,0,1-4.021,4.021h-3.121a4.029,4.029,0,0,1-4.024-4.021v-11.958a14.114,14.114,0,0,1,14.11-14.11h9.111a14.116,14.116,0,0,1,14.11,14.11v16.677a6.554,6.554,0,0,1-6.546,6.545h-.965v.378a3.917,3.917,0,0,1-3.911,3.912Zm-.91-6.6v2.685a.912.912,0,0,0,.91.913h6.979a.912.912,0,0,0,.91-.913v-2.685a.912.912,0,0,0-.91-.913h-6.979A.912.912,0,0,0,12840.794,4046.672Z" transform="translate(-11869.5 3326.041)"/>
    </g>
  </g>
</svg>
